# xmcd
#
# Track frame offsets: 
#        150
#        19593
#        43144
#        58071
#        77649
#        92152
#        107843
#        129750
#        146271
#        166313
#        180013
#        191934
#
# Disc length: 2978 seconds
#
# Revision: 0
# Processed by: cddbd v1.5.2PL0 Copyright (c) Steve Scherf et al.
# Submitted via: ExactAudioCopy v1.3
#
DISCID=940ba00c
DTITLE=Anna Scionti - Orphan Diary
DYEAR=2019
DGENRE=Dirty Blues
TTITLE0=Trouble In My Head
TTITLE1=You’re My Keeper
TTITLE2=Pocket Full Of Love
TTITLE3=Too Much Drinking
TTITLE4=Bury My Hurt
TTITLE5=Never Let Her Go
TTITLE6=All I Want Is Her Back
TTITLE7=This World
TTITLE8=8-Wheeler Gang
TTITLE9=Black Dog Monday
TTITLE10=Keep Your Money Bag Full
TTITLE11=I Always Wondered
EXTD=
EXTT0=
EXTT1=
EXTT2=
EXTT3=
EXTT4=
EXTT5=
EXTT6=
EXTT7=
EXTT8=
EXTT9=
EXTT10=
EXTT11=
PLAYORDER=
